<svg xmlns="http://www.w3.org/2000/svg" xmlns:xlink="http://www.w3.org/1999/xlink" viewBox="0 0 280 280"><defs><clipPath id="a"><path d="M92.36,174.33s5.74,0.49,15.85,13.53a34.57,34.57,0,0,0,16.39,11.89L45.69,286.38l-30.5-28.46Z" style="fill:none"/></clipPath><clipPath id="b"><path d="M234.76,64v4.36a13.14,13.14,0,0,1-3.51,9V72.91A13.14,13.14,0,0,0,234.76,64Z" style="fill:none"/></clipPath><clipPath id="c"><path d="M54.6,242v3.31q0-1.65,0-3.31h0Z" style="fill:none"/></clipPath><clipPath id="d"><path d="M42.8,249.12v-4.36q0-.31,0-0.64v4.36Q42.8,248.81,42.8,249.12Z" style="fill:none"/></clipPath><clipPath id="e"><path d="M44.72,249.43v-4.36q0-.54,0-1.15v4.36Q44.72,248.89,44.72,249.43Z" style="fill:none"/></clipPath><clipPath id="f"><path d="M54.59,246.32c-1.28-1.17-3.06-1.77-5.85-1.78v-4.36c2.79,0,4.57.6,5.85,1.78q0,2.18,0,4.36V242c1.55,1.43,2.36,3.69,2.35,7.56v4.36C57,250,56.14,247.75,54.59,246.32Z" style="fill:none"/></clipPath><clipPath id="g"><path d="M55,249.18v4.36c0-3-.66-4.5-1.82-5.56a6.24,6.24,0,0,0-4.57-1.47,18.9,18.9,0,0,0-2.33.16V242.3a18.9,18.9,0,0,1,2.33-.16,6.24,6.24,0,0,1,4.57,1.47C54.36,244.68,55,246.2,55,249.18Z" style="fill:none"/></clipPath><clipPath id="h"><path d="M56.95,249.52v4.36q0,0.31,0,.63v-4.36Q56.95,249.83,56.95,249.52Z" style="fill:none"/></clipPath><clipPath id="i"><path d="M55,254.73q0-2.18,0-4.36,0-.64,0-1.2v4.36Q55,254.1,55,254.73Z" style="fill:none"/></clipPath><clipPath id="j"><path d="M44.72,249.43v-4.36c0,3,.66,4.54,1.82,5.61a6.29,6.29,0,0,0,4.56,1.45,19.15,19.15,0,0,0,2.36-.16v4.36a19.15,19.15,0,0,1-2.36.16A6.29,6.29,0,0,1,46.54,255C45.37,254,44.72,252.43,44.72,249.43Z" style="fill:none"/></clipPath><clipPath id="k"><path d="M42.8,249.12v-4.36c0,3.86.79,6.11,2.36,7.55,1.27,1.18,3.05,1.79,5.83,1.79,0.73,0,1.54,0,2.42-.13v4.36c-0.88.09-1.68,0.13-2.42,0.13-2.77,0-4.55-.61-5.83-1.79C43.59,255.23,42.8,253,42.8,249.12Z" style="fill:none"/></clipPath><clipPath id="l"><path d="M31.1,259.46v-4.36a13.26,13.26,0,0,0,22.93,9v4.36a13.1,13.1,0,0,1-9.65,4.19A13.23,13.23,0,0,1,31.1,259.46Z" style="fill:none"/></clipPath></defs><title>popsyckle</title><path d="M181.06,47.27c-9.17,10.06-23.8,7.06-56.08,40.58-17.92,18.6-62.22,63.55-62.66,67.82S76.94,183.77,95,200.49s43.07,29.83,47.3,29,46.39-47.77,62.6-67.87,22.56-44.61,36-59.14c44-47.65,16.42-69.13,11.54-73.63C245.82,22.77,224.73-.67,181.06,47.27Z" style="fill:#8f0edb"/><path d="M118.28,177.6c37.95,37.68,25.75,48.49,23.63,48.63-8.26.53-26-10.56-43.78-26.8-17.48-16-31-33.32-32.54-42.69C65.15,154.16,76.13,135.74,118.28,177.6Z" style="fill:#6d0db2"/><path d="M140.26,172.31c6,4.72,12.22-4.25,12.22-4.25s57.18-63.1,60.3-67.3c10.86-14.57,24.65-44.23,22.54-46.5S212.1,79.42,201.46,90.95s-56.65,59.34-62.78,66S135.4,168.46,140.26,172.31Z" style="fill:#6d0db2"/><path d="M106.87,142.42c5.23,4.85,8.79,3.8,12.17.13s59.47-63.22,64.81-69.61,25.74-30.24,26.69-34.07-7.7-1.47-19.85,10.29-21.09,17.24-38.08,35.3S108.91,129,105.87,133,103.24,139.05,106.87,142.42Z" style="fill:#6d0db2"/><path d="M158.67,201.14c4.07,3.78,7.38,2.5,10.7-1.22,30.11-33.8,40.28-41.57,60.45-83.22,7.17-14.8,30-34.43,26.26-36.63-3-1.75-10.47,7.66-22,20.2s-11.8,25.67-28.76,43.76-43.39,44.82-46.5,48.74S155.84,198.51,158.67,201.14Z" style="fill:#6d0db2"/><g style="clip-path:url(#a)"><g style="isolation:isolate"><g style="isolation:isolate"><g style="clip-path:url(#b)"><g style="isolation:isolate"><path d="M234.76,64v4.36a13.22,13.22,0,0,1-.18,2.15V66.1a13.22,13.22,0,0,0,.18-2.15" style="fill:#7c6c5c"/><path d="M234.58,66.1v4.36A13.14,13.14,0,0,1,234,72.8V68.44a13.14,13.14,0,0,0,.61-2.34" style="fill:#786859"/><path d="M234,68.44V72.8a13.1,13.1,0,0,1-1.19,2.45V70.89A13.1,13.1,0,0,0,234,68.44" style="fill:#746456"/><path d="M232.79,70.89v4.36a13.3,13.3,0,0,1-1.54,2V72.91a13.3,13.3,0,0,0,1.54-2" style="fill:#6f6153"/></g></g></g><g style="isolation:isolate"><g style="clip-path:url(#c)"><g style="isolation:isolate"><path d="M57,249.52v4.36c0-3.87-.81-6.13-2.36-7.56-1.28-1.17-3.07-1.78-5.85-1.78-0.73,0-1.53,0-2.41.13v-4.36c0.88-.08,1.68-0.13,2.41-0.13,2.79,0,4.58.6,5.85,1.78,1.55,1.43,2.36,3.69,2.36,7.56" style="fill:#6f6153"/></g></g></g><polygon points="44.75 243.92 44.75 248.28 42.8 248.48 42.8 244.13 44.75 243.92" style="fill:#6b5d50"/><g style="isolation:isolate"><g style="clip-path:url(#d)"><g style="isolation:isolate"><path d="M42.8,244.12v4.36q0,0.33,0,.64v-4.36q0-.31,0-0.64" style="fill:#7c6c5c"/></g></g></g><g style="isolation:isolate"><g style="clip-path:url(#e)"><g style="isolation:isolate"><path d="M44.75,243.92v4.36q0,0.61,0,1.15v-4.36q0-.54,0-1.15" style="fill:#54493f"/></g></g></g><g style="isolation:isolate"><g style="clip-path:url(#f)"><g style="isolation:isolate"><path d="M57,249.52v4.36c0-3.87-.81-6.13-2.36-7.56-1.28-1.17-3.07-1.78-5.85-1.78-0.73,0-1.53,0-2.41.13v-4.36c0.88-.08,1.68-0.13,2.41-0.13,2.79,0,4.58.6,5.85,1.78,1.55,1.43,2.36,3.69,2.36,7.56" style="fill:#6f6153"/></g></g></g><g style="isolation:isolate"><g style="clip-path:url(#g)"><g style="isolation:isolate"><path d="M55,249.18v4.36c0-3-.66-4.5-1.82-5.56a6.24,6.24,0,0,0-4.57-1.47,18.9,18.9,0,0,0-2.33.16V242.3a18.9,18.9,0,0,1,2.33-.16,6.24,6.24,0,0,1,4.57,1.47c1.17,1.07,1.82,2.59,1.82,5.56" style="fill:#4b4139"/></g></g></g><g style="isolation:isolate"><g style="clip-path:url(#h)"><g style="isolation:isolate"><path d="M56.95,249.52v4.36q0,0.31,0,.63v-4.36q0-.32,0-0.63" style="fill:#54493f"/></g></g></g><g style="isolation:isolate"><g style="clip-path:url(#i)"><g style="isolation:isolate"><path d="M55,249.18v4.36q0,0.56,0,1.2v-4.36q0-.64,0-1.2" style="fill:#7c6c5c"/></g></g></g><polygon points="56.94 250.15 56.94 254.51 54.98 254.73 54.98 250.37 56.94 250.15" style="fill:#493f37"/><g style="isolation:isolate"><g style="clip-path:url(#j)"><g style="isolation:isolate"><path d="M53.46,252v4.36a19.15,19.15,0,0,1-2.36.16A6.29,6.29,0,0,1,46.54,255c-1.16-1.07-1.82-2.61-1.82-5.61v-4.36c0,3,.66,4.54,1.82,5.61a6.29,6.29,0,0,0,4.56,1.45,19.15,19.15,0,0,0,2.36-.16" style="fill:#6f6153"/></g></g></g><polygon points="53.46 251.97 53.46 256.33 53.4 258.33 53.4 253.97 53.46 251.97" style="fill:#53483f"/><g style="isolation:isolate"><g style="clip-path:url(#k)"><g style="isolation:isolate"><path d="M53.4,254v4.36c-0.88.09-1.68,0.13-2.42,0.13-2.77,0-4.55-.61-5.83-1.79-1.56-1.44-2.36-3.68-2.36-7.55v-4.36c0,3.86.79,6.11,2.36,7.55,1.27,1.18,3.05,1.79,5.83,1.79,0.73,0,1.54,0,2.42-.13" style="fill:#4b4139"/></g></g></g><path d="M44.75,243.92c-0.18,3.77.49,5.56,1.79,6.76a6.29,6.29,0,0,0,4.56,1.45,19.14,19.14,0,0,0,2.36-.16l-0.06,2c-0.88.09-1.68,0.13-2.42,0.13-2.77,0-4.55-.61-5.83-1.79-1.65-1.52-2.44-3.93-2.35-8.19Z" style="fill:#806e60"/><g style="isolation:isolate"><g style="clip-path:url(#l)"><g style="isolation:isolate"><path d="M54,264.15v4.36a13.1,13.1,0,0,1-9.65,4.19A13.23,13.23,0,0,1,31.1,259.46v-4.36a13.26,13.26,0,0,0,22.93,9" style="fill:#6f6153"/></g></g></g><path d="M230.5,54.26a13.17,13.17,0,0,1,.75,18.65L54,264.15a13.1,13.1,0,0,1-9.65,4.19,13.3,13.3,0,0,1-9-3.5,13.15,13.15,0,0,1-.8-18.59L211.78,55A13.28,13.28,0,0,1,230.5,54.26ZM56.94,250.15c0.09-4.26-.72-6.68-2.35-8.19-1.28-1.17-3.07-1.78-5.85-1.78-0.73,0-1.53,0-2.41.13l0,2a18.89,18.89,0,0,1,2.33-.16,6.24,6.24,0,0,1,4.57,1.47c1.31,1.2,2,3,1.79,6.76l2-.22M53.4,254l0.06-2a19.15,19.15,0,0,1-2.36.16,6.29,6.29,0,0,1-4.56-1.45c-1.3-1.2-2-3-1.79-6.76l-1.94.21c-0.09,4.26.7,6.67,2.35,8.19,1.27,1.18,3.05,1.79,5.83,1.79,0.73,0,1.54,0,2.42-.13" style="fill:#bda48c"/><path d="M48.74,240.19c2.79,0,4.58.6,5.85,1.78,1.63,1.51,2.44,3.93,2.35,8.19l-2,.22c0.19-3.78-.48-5.56-1.79-6.76a6.24,6.24,0,0,0-4.57-1.47,18.9,18.9,0,0,0-2.33.16l0-2C47.21,240.23,48,240.19,48.74,240.19Z" style="fill:#806e60"/><polygon points="231.25 72.91 231.25 77.26 54.03 268.5 54.03 264.14 231.25 72.91" style="fill:#6d5f51"/></g></g></svg>