<svg xmlns="http://www.w3.org/2000/svg" xmlns:xlink="http://www.w3.org/1999/xlink" viewBox="0 0 280 280"><defs><clipPath id="a"><path d="M236.76,60v4.36a13.1,13.1,0,0,1-3.52,8.94V68.9A13.1,13.1,0,0,0,236.76,60Z" style="fill:none"/></clipPath><clipPath id="b"><path d="M56.59,242.33q0-2.18,0-4.36h0v4.36Z" style="fill:none"/></clipPath><clipPath id="c"><path d="M44.8,244.49q0,0.32,0,.64v-4.36q0-.31,0-0.64C44.8,241.44,44.81,243.18,44.8,244.49Z" style="fill:none"/></clipPath><clipPath id="d"><path d="M46.72,245.43v-4.36q0-.54,0-1.16v4.36Q46.71,244.88,46.72,245.43Z" style="fill:none"/></clipPath><clipPath id="e"><path d="M56.59,242.33c-1.27-1.17-3.05-1.78-5.82-1.78v-4.36c2.76,0,4.55.61,5.82,1.78h0q0,2.18,0,4.36V238c1.55,1.42,2.35,3.68,2.35,7.55v4.36C58.95,246,58.15,243.75,56.59,242.33Z" style="fill:none"/></clipPath><clipPath id="f"><path d="M57,245.22v4.36c0-3-.66-4.54-1.82-5.61a6.29,6.29,0,0,0-4.57-1.46,19,19,0,0,0-2.34.16v-4.36a19,19,0,0,1,2.34-.16,6.29,6.29,0,0,1,4.57,1.46C56.36,240.68,57,242.22,57,245.22Z" style="fill:none"/></clipPath><clipPath id="g"><path d="M58.95,245.52v4.36q0,0.31,0,.63v-4.36Q58.95,245.83,58.95,245.52Z" style="fill:none"/></clipPath><clipPath id="h"><path d="M57,249.57q0,0.54,0,1.15v-4.36q0-.61,0-1.15C57,246.52,57,248.27,57,249.57Z" style="fill:none"/></clipPath><clipPath id="i"><path d="M48.53,251c-1.16-1.08-1.82-2.61-1.82-5.61v-4.36c0,3,.66,4.53,1.82,5.61V251Z" style="fill:none"/></clipPath><clipPath id="j"><path d="M53.11,252.49A6.3,6.3,0,0,1,48.53,251v-4.36a6.3,6.3,0,0,0,4.57,1.45,19.16,19.16,0,0,0,2.36-.16v4.36A19.16,19.16,0,0,1,53.11,252.49Z" style="fill:none"/></clipPath><clipPath id="k"><path d="M44.79,245.12v-4.36c0,3.86.79,6.11,2.36,7.55,1.28,1.17,3.07,1.78,5.86,1.78,0.73,0,1.52,0,2.39-.12v4.36c-0.87.08-1.67,0.12-2.39,0.12-2.79,0-4.58-.61-5.86-1.78C45.59,251.23,44.79,249,44.79,245.12Z" style="fill:none"/></clipPath><clipPath id="l"><path d="M33.09,255.46V251.1a13.26,13.26,0,0,0,22.93,9v4.36a13.12,13.12,0,0,1-9.65,4.19A13.25,13.25,0,0,1,33.09,255.46Z" style="fill:none"/></clipPath></defs><title>popsyckle</title><g style="isolation:isolate"><g style="isolation:isolate"><g style="clip-path:url(#a)"><g style="isolation:isolate"><path d="M236.76,60v4.36a13.19,13.19,0,0,1-.18,2.14V62.1a13.19,13.19,0,0,0,.18-2.14" style="fill:#7c6c5c"/><path d="M236.58,62.1v4.36a13.1,13.1,0,0,1-.61,2.33V64.43a13.1,13.1,0,0,0,.61-2.33" style="fill:#786859"/><path d="M236,64.43v4.36a13.05,13.05,0,0,1-1.18,2.44V66.87A13.05,13.05,0,0,0,236,64.43" style="fill:#746456"/><path d="M234.79,66.87v4.36a13.25,13.25,0,0,1-1.55,2V68.9a13.25,13.25,0,0,0,1.55-2" style="fill:#6f6153"/></g></g></g><g style="isolation:isolate"><g style="clip-path:url(#b)"><g style="isolation:isolate"><path d="M58.95,245.52v4.36c0-3.88-.8-6.13-2.36-7.55-1.27-1.17-3.05-1.78-5.82-1.78-0.74,0-1.55,0-2.43.13v-4.36c0.89-.09,1.7-0.13,2.43-0.13,2.77,0,4.55.61,5.82,1.78,1.56,1.42,2.36,3.68,2.36,7.55" style="fill:#6f6153"/></g></g></g><polygon points="48.34 236.32 48.34 240.68 48.28 242.67 48.28 238.31 48.34 236.32" style="fill:#7b6b5b"/><polygon points="46.74 239.91 46.74 244.27 44.8 244.49 44.8 240.13 46.74 239.91" style="fill:#6b5d50"/><g style="isolation:isolate"><g style="clip-path:url(#c)"><g style="isolation:isolate"><path d="M44.8,240.13v4.36q0,0.33,0,.64v-4.36q0-.31,0-0.64" style="fill:#7c6c5c"/></g></g></g><g style="isolation:isolate"><g style="clip-path:url(#d)"><g style="isolation:isolate"><path d="M46.74,239.91v4.36q0,0.61,0,1.16v-4.36q0-.54,0-1.16" style="fill:#54493f"/></g></g></g><g style="isolation:isolate"><g style="clip-path:url(#e)"><g style="isolation:isolate"><path d="M58.95,245.52v4.36c0-3.88-.8-6.13-2.36-7.55-1.27-1.17-3.05-1.78-5.82-1.78-0.74,0-1.55,0-2.43.13v-4.36c0.89-.09,1.7-0.13,2.43-0.13,2.77,0,4.55.61,5.82,1.78,1.56,1.42,2.36,3.68,2.36,7.55" style="fill:#6f6153"/></g></g></g><g style="isolation:isolate"><g style="clip-path:url(#f)"><g style="isolation:isolate"><path d="M57,245.22v4.36c0-3-.66-4.54-1.82-5.61a6.29,6.29,0,0,0-4.57-1.46,19,19,0,0,0-2.34.16v-4.36a19,19,0,0,1,2.34-.16,6.29,6.29,0,0,1,4.57,1.46c1.16,1.07,1.82,2.61,1.82,5.61" style="fill:#4b4139"/></g></g></g><g style="isolation:isolate"><g style="clip-path:url(#g)"><g style="isolation:isolate"><path d="M58.95,245.52v4.36q0,0.31,0,.63v-4.36q0-.32,0-0.63" style="fill:#54493f"/></g></g></g><g style="isolation:isolate"><g style="clip-path:url(#h)"><g style="isolation:isolate"><path d="M57,245.22v4.36q0,0.54,0,1.15v-4.36q0-.61,0-1.15" style="fill:#7c6c5c"/></g></g></g><polygon points="58.94 246.15 58.94 250.51 56.99 250.73 56.99 246.37 58.94 246.15" style="fill:#493f37"/><path d="M50.77,236.19c2.77,0,4.55.6,5.82,1.78,1.64,1.5,2.44,3.92,2.35,8.19l-2,.22c0.18-3.77-.49-5.56-1.79-6.76a6.29,6.29,0,0,0-4.57-1.46,19,19,0,0,0-2.34.16l0.05-2C49.22,236.23,50,236.19,50.77,236.19Z" style="fill:#806e60"/><g style="isolation:isolate"><g style="clip-path:url(#i)"><g style="isolation:isolate"><path d="M55.46,248v4.36a19.16,19.16,0,0,1-2.36.16A6.3,6.3,0,0,1,48.53,251c-1.16-1.08-1.82-2.61-1.82-5.61v-4.36c0,3,.66,4.53,1.82,5.61a6.3,6.3,0,0,0,4.57,1.45,19.16,19.16,0,0,0,2.36-.16" style="fill:#6f6153"/></g></g></g><g style="isolation:isolate"><g style="clip-path:url(#j)"><g style="isolation:isolate"><path d="M55.46,248v4.36a19.16,19.16,0,0,1-2.36.16A6.3,6.3,0,0,1,48.53,251c-1.16-1.08-1.82-2.61-1.82-5.61v-4.36c0,3,.66,4.53,1.82,5.61a6.3,6.3,0,0,0,4.57,1.45,19.16,19.16,0,0,0,2.36-.16" style="fill:#6f6153"/></g></g></g><polygon points="55.47 247.97 55.47 252.33 55.4 254.33 55.4 249.97 55.47 247.97" style="fill:#53483f"/><g style="isolation:isolate"><g style="clip-path:url(#k)"><g style="isolation:isolate"><path d="M55.4,250v4.36c-0.87.08-1.67,0.12-2.39,0.12-2.79,0-4.58-.61-5.86-1.78-1.56-1.44-2.36-3.68-2.36-7.55v-4.36c0,3.86.79,6.11,2.36,7.55,1.28,1.17,3.07,1.78,5.86,1.78,0.73,0,1.52,0,2.39-.12" style="fill:#4b4139"/></g></g></g><path d="M46.74,239.91c-0.18,3.78.49,5.56,1.79,6.77a6.3,6.3,0,0,0,4.57,1.45,19.15,19.15,0,0,0,2.36-.16l-0.06,2c-0.87.08-1.67,0.12-2.39,0.12-2.79,0-4.58-.61-5.86-1.78-1.65-1.52-2.44-3.93-2.35-8.19Z" style="fill:#806e60"/><polygon points="233.24 68.9 233.24 73.26 56.02 264.51 56.02 260.15 233.24 68.9" style="fill:#6d5f51"/><g style="isolation:isolate"><g style="clip-path:url(#l)"><g style="isolation:isolate"><path d="M56,260.15v4.36a13.12,13.12,0,0,1-9.65,4.19,13.25,13.25,0,0,1-13.28-13.23V251.1a13.26,13.26,0,0,0,22.93,9" style="fill:#6f6153"/></g></g></g><path d="M232.49,50.25a13.16,13.16,0,0,1,.75,18.65L56,260.15a13.12,13.12,0,0,1-9.65,4.19,13.21,13.21,0,0,1-9.81-22.09L213.77,51A13.28,13.28,0,0,1,232.49,50.25ZM55.4,250l0.06-2a19.16,19.16,0,0,1-2.36.16,6.3,6.3,0,0,1-4.57-1.45c-1.3-1.21-2-3-1.79-6.77l-1.94.22c-0.09,4.26.7,6.67,2.35,8.19,1.28,1.17,3.07,1.78,5.86,1.78,0.73,0,1.52,0,2.39-.12m3.54-3.82c0.09-4.27-.71-6.69-2.35-8.19-1.27-1.17-3.05-1.78-5.82-1.78-0.74,0-1.55,0-2.43.13l-0.05,2a19,19,0,0,1,2.34-.16,6.29,6.29,0,0,1,4.57,1.46c1.3,1.2,2,3,1.79,6.76l2-.22" style="fill:#bda48c"/></g></svg>