<svg xmlns="http://www.w3.org/2000/svg" xmlns:xlink="http://www.w3.org/1999/xlink" viewBox="0 0 280 280"><defs><clipPath id="a"><path d="M261.22,26.11c-1.36,5.21-7.31,9.11-12.07,8.07l-0.29-.07a9.31,9.31,0,0,1-1.2,6.89c-3.45,6.15-12.59,9-18.15,5.9a8.51,8.51,0,0,1-3.06-2.67c-0.21,3.52-3,7.17-7.78,8.86-7.33,2.62-15.42-.88-16.75-6.43,0-.07,0-0.15,0-0.22-1.31,2.54-4.4,4.48-8.47,4.58-6.64.21-12.52-7.29-12.24-12.21C182.23,20,212.81,8.44,217.83,7.36c12.52-2.69,32-2.62,39,4.73C259.55,15,262.61,20.89,261.22,26.11ZM214.72-40.22L-23.09,217.4,88.28,320.22,326.09,62.6Z" style="fill:none"/></clipPath><clipPath id="b"><path d="M101.36,174.33s5.74,0.49,15.85,13.53a34.57,34.57,0,0,0,16.39,11.89L54.69,286.38l-30.5-28.46Z" style="fill:none"/></clipPath><clipPath id="c"><path d="M243.76,64v4.36a13.14,13.14,0,0,1-3.51,9V72.91A13.14,13.14,0,0,0,243.76,64Z" style="fill:none"/></clipPath><clipPath id="d"><path d="M63.59,246.32c-1.28-1.17-3.06-1.77-5.85-1.78v-4.36c2.78,0,4.57.6,5.85,1.78v4.36Z" style="fill:none"/></clipPath><clipPath id="e"><path d="M63.59,246.32h0V242h0v4.36Z" style="fill:none"/></clipPath><clipPath id="f"><path d="M51.8,249.12v-4.36q0-.31,0-0.64v4.36Q51.8,248.81,51.8,249.12Z" style="fill:none"/></clipPath><clipPath id="g"><path d="M53.72,249.43v-4.36q0-.54,0-1.15v4.36Q53.72,248.89,53.72,249.43Z" style="fill:none"/></clipPath><clipPath id="h"><path d="M65.95,253.88c0-3.87-.8-6.12-2.35-7.55V242c1.55,1.43,2.35,3.68,2.35,7.55C65.95,250.82,65.95,252.57,65.95,253.88Z" style="fill:none"/></clipPath><clipPath id="i"><path d="M64,249.18v4.36c0-3-.65-4.49-1.81-5.56a6.28,6.28,0,0,0-4.58-1.47,18.9,18.9,0,0,0-2.33.16V242.3a18.9,18.9,0,0,1,2.33-.16,6.28,6.28,0,0,1,4.58,1.47C63.36,244.68,64,246.2,64,249.18Z" style="fill:none"/></clipPath><clipPath id="j"><path d="M65.95,249.52v4.36q0,0.31,0,.63v-4.36Q65.95,249.83,65.95,249.52Z" style="fill:none"/></clipPath><clipPath id="k"><path d="M64,254.73q0-2.18,0-4.36,0-.64,0-1.2v4.36Q64,254.1,64,254.73Z" style="fill:none"/></clipPath><clipPath id="l"><path d="M53.72,249.43v-4.36c0,3,.66,4.54,1.82,5.61a6.29,6.29,0,0,0,4.56,1.45,19.15,19.15,0,0,0,2.36-.16v4.36a19.15,19.15,0,0,1-2.36.16A6.29,6.29,0,0,1,55.54,255C54.37,254,53.72,252.43,53.72,249.43Z" style="fill:none"/></clipPath><clipPath id="m"><path d="M51.8,249.12v-4.36c0,3.86.79,6.11,2.36,7.55,1.27,1.18,3.05,1.79,5.83,1.79,0.73,0,1.54,0,2.42-.13v4.36c-0.88.09-1.68,0.13-2.42,0.13-2.77,0-4.55-.61-5.83-1.79C52.59,255.23,51.8,253,51.8,249.12Z" style="fill:none"/></clipPath><clipPath id="n"><path d="M40.1,259.46v-4.36a13.26,13.26,0,0,0,22.93,9v4.36a13.1,13.1,0,0,1-9.65,4.19A13.23,13.23,0,0,1,40.1,259.46Z" style="fill:none"/></clipPath></defs><title>popsyckle</title><g style="clip-path:url(#a)"><path d="M190.06,47.27c-9.17,10.06-23.8,7.06-56.08,40.58-17.92,18.6-62.22,63.55-62.66,67.82S85.94,183.77,104,200.49s43.07,29.83,47.3,29,46.39-47.77,62.6-67.87,22.56-44.61,36-59.14c44-47.65,16.42-69.13,11.54-73.63C254.82,22.77,233.73-.67,190.06,47.27Z" style="fill:#8f0edb"/><path d="M127.28,177.6c37.95,37.68,25.75,48.49,23.63,48.63-8.26.53-26-10.56-43.78-26.8-17.48-16-31-33.32-32.54-42.69C74.15,154.16,85.13,135.74,127.28,177.6Z" style="fill:#6d0db2"/><path d="M149.26,172.31c6,4.72,12.22-4.25,12.22-4.25s57.18-63.1,60.3-67.3c10.86-14.57,24.65-44.23,22.54-46.5S221.1,79.42,210.46,90.95s-56.65,59.34-62.78,66S144.4,168.46,149.26,172.31Z" style="fill:#6d0db2"/><path d="M115.87,142.42c5.23,4.85,8.79,3.8,12.17.13s59.47-63.22,64.81-69.61,25.74-30.24,26.69-34.07-7.7-1.47-19.85,10.29-21.09,17.24-38.08,35.3S117.91,129,114.87,133,112.24,139.05,115.87,142.42Z" style="fill:#6d0db2"/><path d="M167.67,201.14c4.07,3.78,7.38,2.5,10.7-1.22,30.11-33.8,40.28-41.57,60.45-83.22,7.17-14.8,30-34.43,26.26-36.63-3-1.75-10.47,7.66-22,20.2s-11.8,25.67-28.76,43.76-43.39,44.82-46.5,48.74S164.84,198.51,167.67,201.14Z" style="fill:#6d0db2"/><g style="clip-path:url(#b)"><g style="isolation:isolate"><g style="isolation:isolate"><g style="clip-path:url(#c)"><g style="isolation:isolate"><path d="M243.76,64v4.36a13.22,13.22,0,0,1-.18,2.15V66.1a13.22,13.22,0,0,0,.18-2.15" style="fill:#7c6c5c"/><path d="M243.58,66.1v4.36A13.14,13.14,0,0,1,243,72.8V68.44a13.14,13.14,0,0,0,.61-2.34" style="fill:#786859"/><path d="M243,68.44V72.8a13.1,13.1,0,0,1-1.19,2.45V70.89A13.1,13.1,0,0,0,243,68.44" style="fill:#746456"/><path d="M241.78,70.89v4.36a13.3,13.3,0,0,1-1.54,2V72.91a13.3,13.3,0,0,0,1.54-2" style="fill:#6f6153"/></g></g></g><g style="isolation:isolate"><g style="clip-path:url(#d)"><g style="isolation:isolate"><path d="M65.95,249.52v4.36c0-3.87-.8-6.12-2.36-7.55-1.28-1.17-3.07-1.78-5.85-1.78-0.73,0-1.53,0-2.41.13v-4.36c0.88-.08,1.68-0.13,2.41-0.13,2.79,0,4.58.6,5.85,1.78,1.55,1.43,2.36,3.68,2.36,7.55" style="fill:#6f6153"/></g></g></g><g style="isolation:isolate"><g style="clip-path:url(#e)"><g style="isolation:isolate"><path d="M65.95,249.52v4.36c0-3.87-.8-6.12-2.36-7.55-1.28-1.17-3.07-1.78-5.85-1.78-0.73,0-1.53,0-2.41.13v-4.36c0.88-.08,1.68-0.13,2.41-0.13,2.79,0,4.58.6,5.85,1.78,1.55,1.43,2.36,3.68,2.36,7.55" style="fill:#6f6153"/></g></g></g><polygon points="53.75 243.92 53.75 248.28 51.8 248.48 51.8 244.13 53.75 243.92" style="fill:#6b5d50"/><g style="isolation:isolate"><g style="clip-path:url(#f)"><g style="isolation:isolate"><path d="M51.8,244.12v4.36q0,0.33,0,.64v-4.36q0-.31,0-0.64" style="fill:#7c6c5c"/></g></g></g><g style="isolation:isolate"><g style="clip-path:url(#g)"><g style="isolation:isolate"><path d="M53.75,243.92v4.36q0,0.61,0,1.15v-4.36q0-.54,0-1.15" style="fill:#54493f"/></g></g></g><g style="isolation:isolate"><g style="clip-path:url(#h)"><g style="isolation:isolate"><path d="M65.95,249.52v4.36c0-3.87-.8-6.12-2.36-7.55-1.28-1.17-3.07-1.78-5.85-1.78-0.73,0-1.53,0-2.41.13v-4.36c0.88-.08,1.68-0.13,2.41-0.13,2.79,0,4.58.6,5.85,1.78,1.55,1.43,2.36,3.68,2.36,7.55" style="fill:#6f6153"/></g></g></g><g style="isolation:isolate"><g style="clip-path:url(#i)"><g style="isolation:isolate"><path d="M64,249.18v4.36c0-3-.65-4.49-1.81-5.56a6.28,6.28,0,0,0-4.58-1.47,18.9,18.9,0,0,0-2.33.16V242.3a18.9,18.9,0,0,1,2.33-.16,6.28,6.28,0,0,1,4.58,1.47c1.16,1.07,1.81,2.59,1.81,5.56" style="fill:#4b4139"/></g></g></g><g style="isolation:isolate"><g style="clip-path:url(#j)"><g style="isolation:isolate"><path d="M65.95,249.52v4.36q0,0.31,0,.63v-4.36q0-.32,0-0.63" style="fill:#54493f"/></g></g></g><g style="isolation:isolate"><g style="clip-path:url(#k)"><g style="isolation:isolate"><path d="M64,249.18v4.36q0,0.56,0,1.2v-4.36q0-.64,0-1.2" style="fill:#7c6c5c"/></g></g></g><polygon points="65.94 250.15 65.94 254.51 63.98 254.73 63.98 250.37 65.94 250.15" style="fill:#493f37"/><path d="M57.74,240.19c2.79,0,4.58.6,5.85,1.78,1.64,1.51,2.44,3.93,2.35,8.19l-2,.22c0.19-3.78-.48-5.56-1.78-6.76a6.28,6.28,0,0,0-4.58-1.47,18.9,18.9,0,0,0-2.33.16l0-2C56.21,240.23,57,240.19,57.74,240.19Z" style="fill:#806e60"/><g style="isolation:isolate"><g style="clip-path:url(#l)"><g style="isolation:isolate"><path d="M62.46,252v4.36a19.15,19.15,0,0,1-2.36.16A6.29,6.29,0,0,1,55.54,255c-1.16-1.07-1.82-2.61-1.82-5.61v-4.36c0,3,.66,4.54,1.82,5.61a6.29,6.29,0,0,0,4.56,1.45,19.15,19.15,0,0,0,2.36-.16" style="fill:#6f6153"/></g></g></g><polygon points="62.46 251.97 62.46 256.33 62.4 258.33 62.4 253.97 62.46 251.97" style="fill:#53483f"/><g style="isolation:isolate"><g style="clip-path:url(#m)"><g style="isolation:isolate"><path d="M62.4,254v4.36c-0.88.09-1.68,0.13-2.42,0.13-2.77,0-4.55-.61-5.83-1.79-1.56-1.44-2.36-3.68-2.36-7.55v-4.36c0,3.86.79,6.11,2.36,7.55,1.27,1.18,3.05,1.79,5.83,1.79,0.73,0,1.54,0,2.42-.13" style="fill:#4b4139"/></g></g></g><path d="M53.75,243.92c-0.18,3.77.49,5.56,1.79,6.76a6.29,6.29,0,0,0,4.56,1.45,19.14,19.14,0,0,0,2.36-.16l-0.06,2c-0.88.09-1.68,0.13-2.42,0.13-2.77,0-4.55-.61-5.83-1.79-1.65-1.52-2.44-3.93-2.35-8.19Z" style="fill:#806e60"/><polygon points="240.25 72.91 240.25 77.26 63.03 268.5 63.03 264.14 240.25 72.91" style="fill:#6d5f51"/><g style="isolation:isolate"><g style="clip-path:url(#n)"><g style="isolation:isolate"><path d="M63,264.15v4.36a13.1,13.1,0,0,1-9.65,4.19A13.23,13.23,0,0,1,40.1,259.46v-4.36a13.26,13.26,0,0,0,22.93,9" style="fill:#6f6153"/></g></g></g><path d="M239.5,54.26a13.17,13.17,0,0,1,.75,18.65L63,264.15a13.1,13.1,0,0,1-9.65,4.19,13.3,13.3,0,0,1-9-3.5,13.15,13.15,0,0,1-.8-18.59L220.78,55A13.28,13.28,0,0,1,239.5,54.26ZM65.94,250.15c0.09-4.26-.71-6.68-2.35-8.19-1.28-1.17-3.07-1.78-5.85-1.78-0.73,0-1.53,0-2.41.13l0,2a18.89,18.89,0,0,1,2.33-.16,6.28,6.28,0,0,1,4.58,1.47c1.3,1.2,2,3,1.78,6.76l2-.22M62.4,254l0.06-2a19.15,19.15,0,0,1-2.36.16,6.29,6.29,0,0,1-4.56-1.45c-1.3-1.2-2-3-1.79-6.76l-1.94.21c-0.09,4.26.7,6.67,2.35,8.19,1.27,1.18,3.05,1.79,5.83,1.79,0.73,0,1.54,0,2.42-.13" style="fill:#bda48c"/></g></g></g></svg>